<svg width="620" height="600" viewBox="0 0 620 600" fill="none" xmlns="http://www.w3.org/2000/svg">
<path fill-rule="evenodd" clip-rule="evenodd" d="M340.19 1.64596C401.143 11.5072 434.12 77.7235 482.36 117.892C527.62 155.579 594.026 172.653 613.817 229.487C633.741 286.705 600.744 346.872 582.193 404.591C563.853 461.655 553.883 527.407 506.883 562.203C460.05 596.877 397.457 579.798 340.19 583.761C277.605 588.092 212.463 616.344 156.648 586.44C97.8066 554.915 66.7567 487.72 41.6227 423.8C14.6815 355.284 -14.9699 279.666 8.54255 209.784C31.899 140.367 101.629 103.942 161.988 66.0607C217.225 31.395 276.519 -8.65508 340.19 1.64596Z" fill="url(#paint0_linear)"/>
<defs>
<linearGradient id="paint0_linear" x1="-3.47027e-06" y1="330.5" x2="584" y2="378.5" gradientUnits="userSpaceOnUse">
<stop stop-color="#E0EAFC"/>
<stop offset="1" stop-color="#CFDEF3"/>
</linearGradient>
</defs>
</svg>
