<svg width="620" height="600" viewBox="0 0 620 600" fill="none" xmlns="http://www.w3.org/2000/svg">
<path fill-rule="evenodd" clip-rule="evenodd" d="M309.137 1.19475C366.345 -6.73246 419.987 26.1807 470.198 58.7365C526.647 95.3373 595.475 128.454 615.081 199.563C634.669 270.608 591.02 341.316 567.222 410.634C545.118 475.018 534.406 554.257 481.804 587.769C430.071 620.727 368.255 574.461 309.137 575.056C249.193 575.66 189.631 617.732 134.263 591.268C73.3949 562.175 17.2104 502.747 2.86402 428.667C-11.2165 355.959 29.4742 285.74 62.7196 221.839C89.7045 169.971 132.522 136.897 173.97 99.7842C217.13 61.1385 254.86 8.71584 309.137 1.19475Z" fill="url(#paint0_linear)"/>
<defs>
<linearGradient id="paint0_linear" x1="44" y1="265" x2="561" y2="420" gradientUnits="userSpaceOnUse">
<stop stop-color="#E0EAFC"/>
<stop offset="1" stop-color="#CFDEF3"/>
</linearGradient>
</defs>
</svg>
