<svg width="1440" height="1162" viewBox="0 0 1440 1162" fill="none" xmlns="http://www.w3.org/2000/svg">
<path fill-rule="evenodd" clip-rule="evenodd" d="M1021.91 -574.011C1141.46 -494.151 1192.56 -362.782 1269.02 -246.468C1350 -123.288 1470.06 -13.1544 1481.64 125.318C1494.28 276.394 1506.04 413.987 1378.51 495.85C1252.74 576.579 1023.02 506.824 865.411 520.875C713.627 534.408 341.531 734.626 188.5 700C15.5794 660.874 -71.0288 558.873 -163.5 413.5C-256.912 266.648 -115.041 -8.2899 -51.8693 -154.737C6.10947 -289.145 199.763 -304.635 311.852 -402.429C417.237 -494.375 437.173 -671.812 580.474 -706.44C725.946 -741.592 890.751 -661.631 1021.91 -574.011Z" fill="url(#paint0_linear)"/>
<defs>
<linearGradient id="paint0_linear" x1="24.6638" y1="550.499" x2="1401.51" y2="-88.1437" gradientUnits="userSpaceOnUse">
<stop offset="0.573399" stop-color="#713DFF"/>
<stop offset="1" stop-color="#755FFF" stop-opacity="0.86"/>
</linearGradient>
</defs>
</svg>
