<svg width="1440" height="702" viewBox="0 0 1440 702" fill="none" xmlns="http://www.w3.org/2000/svg">
<path fill-rule="evenodd" clip-rule="evenodd" d="M1021.91 -572.035C1141.46 -492.45 1192.56 -361.533 1269.02 -245.62C1350 -122.864 1470.06 -13.1091 1481.64 124.887C1494.28 275.443 1506.04 412.562 1378.51 494.143C1252.74 574.594 1023.02 505.079 865.411 519.082C713.627 532.568 341.531 732.097 188.5 697.59C15.5793 658.599 -71.0288 556.949 -163.5 412.077C-256.912 265.73 -115.041 -8.26138 -51.8694 -154.204C6.10942 -288.15 199.763 -303.586 311.852 -401.044C417.237 -492.673 437.173 -669.499 580.474 -704.008C725.946 -739.039 890.751 -659.353 1021.91 -572.035Z" fill="url(#paint0_linear)"/>
<defs>
<linearGradient id="paint0_linear" x1="24.6637" y1="548.604" x2="1399.83" y2="-91.4605" gradientUnits="userSpaceOnUse">
<stop offset="0.573399" stop-color="#713DFF"/>
<stop offset="1" stop-color="#755FFF" stop-opacity="0.86"/>
</linearGradient>
</defs>
</svg>
