<svg width="55" height="55" viewBox="0 0 55 55" fill="none" xmlns="http://www.w3.org/2000/svg">
<path d="M8.67025 54.2145C4.34702 54.2145 0.830983 50.8878 0.830983 46.7998V16.0466C0.830983 11.9575 4.34702 8.63194 8.67025 8.63194H41.1847C45.5079 8.63194 49.024 11.9587 49.024 16.0466V46.7998C49.024 50.8889 45.5067 54.2145 41.1847 54.2145H8.67025Z" fill="#67BA8C"/>
<path d="M41.1858 9.41635C45.0509 9.41635 48.1942 12.3905 48.1942 16.0462V46.7994C48.1942 50.4551 45.0497 53.4293 41.1858 53.4293H8.6702C4.80517 53.4293 1.66187 50.4551 1.66187 46.7994V16.0451C1.66187 12.3894 4.80636 9.41523 8.6702 9.41523H41.1858V9.41635ZM41.1858 7.84451H8.6702C3.90183 7.84451 0 11.535 0 16.0451V46.7983C0 51.3095 3.90183 55 8.6702 55H41.1846C45.9542 55 49.856 51.3095 49.856 46.7994V16.0451C49.856 11.535 45.9542 7.84451 41.1858 7.84451Z" fill="#472B29"/>
<path d="M45.2652 28.7908C44.9376 28.7908 44.6717 28.5393 44.6717 28.2294V24.2593C44.6717 23.9495 44.9376 23.698 45.2652 23.698C45.5929 23.698 45.8588 23.9495 45.8588 24.2593V28.2294C45.8588 28.5404 45.5929 28.7908 45.2652 28.7908Z" fill="#472B29"/>
<path d="M45.2652 21.7475C44.9376 21.7475 44.6717 21.496 44.6717 21.1861V19.136C44.6717 18.8261 44.9376 18.5746 45.2652 18.5746C45.5929 18.5746 45.8588 18.8261 45.8588 19.136V21.1861C45.8588 21.496 45.5929 21.7475 45.2652 21.7475Z" fill="#472B29"/>
<path d="M25.7626 35.6598C25.7626 35.6598 12.5519 47.6643 7.35861 53.296C7.87616 53.4116 8.41389 53.4779 8.96824 53.4779H41.472C42.3397 53.4779 43.1683 53.3218 43.9375 53.049C38.5946 47.3196 25.7626 35.6598 25.7626 35.6598Z" fill="#3E7BF1"/>
<path d="M41.4732 53.7598H8.96824C8.42101 53.7598 7.85598 53.6958 7.29094 53.57L6.81137 53.4634L7.13425 53.112C12.2754 47.5341 25.4231 35.578 25.5561 35.4567L25.7614 35.2703L25.9668 35.4567C26.095 35.5735 38.87 47.1906 44.1595 52.8638L44.4444 53.1692L44.0408 53.3118C43.2039 53.6093 42.3397 53.7598 41.4732 53.7598ZM7.92127 53.1165C8.27501 53.1703 8.62518 53.1973 8.96824 53.1973H41.472C42.1261 53.1973 42.7801 53.1041 43.42 52.92C38.3679 47.5701 27.4019 37.5439 25.7626 36.0495C24.1031 37.563 12.8855 47.8193 7.92127 53.1165Z" fill="#472B29"/>
<path d="M22.1064 34.8873L41.7496 53.4666C44.0976 53.3801 46.1536 52.2102 47.3679 50.4643L26.5032 30.7286L22.1064 34.8873Z" fill="#FFFEF4"/>
<path d="M41.6309 53.752L21.6873 34.8875L26.5032 30.3314L47.7501 50.4275L47.6172 50.6184C46.3126 52.49 44.1249 53.6588 41.7615 53.7463L41.6309 53.752ZM22.5265 34.8875L41.8671 53.1805C43.91 53.0671 45.7986 52.0768 46.9857 50.4982L26.5032 31.1252L22.5265 34.8875Z" fill="#472B29"/>
<path d="M28.4713 33.0993C28.4713 33.0993 41.3603 45.7898 47.2551 50.6198C48.0552 49.5375 48.5288 48.2239 48.5288 46.8058V16.0627C48.5288 15.5934 48.4754 15.1353 48.3781 14.693C43.2215 18.5765 28.4713 33.0993 28.4713 33.0993Z" fill="#BEBACB"/>
<path d="M47.3085 51.0353L47.0592 50.8309C41.2225 46.048 28.3858 33.4205 28.2552 33.2936L28.0582 33.0994L28.2552 32.9051C28.4048 32.7603 43.0803 18.3251 48.1941 14.4729L48.5704 14.1889L48.6689 14.6357C48.7722 15.1095 48.8256 15.5901 48.8256 16.0627V46.807C48.8256 48.2329 48.3662 49.606 47.4985 50.7815L47.3085 51.0353ZM28.882 33.0994C30.5071 34.6937 41.6784 45.6225 47.1946 50.1977C47.8748 49.1783 48.2321 48.0117 48.2321 46.8059V16.0616C48.2321 15.7809 48.2107 15.4958 48.1715 15.2128C43.1218 19.1649 30.6103 31.404 28.882 33.0994Z" fill="#472B29"/>
<path d="M8.62882 53.4627L48.5125 15.7394C48.3997 13.5276 47.1509 11.5976 45.3003 10.4614L3.0485 50.4234C4.24861 52.1738 6.29033 53.356 8.62882 53.4627Z" fill="#FDE751"/>
<path d="M8.74517 53.7491L8.6134 53.7435C6.2583 53.6357 4.08481 52.4523 2.79924 50.5762L2.66866 50.3853L2.83841 50.2248L45.26 10.1022L45.4606 10.2257C47.4441 11.4427 48.6953 13.4996 48.808 15.726L48.814 15.8495L8.74517 53.7491ZM3.43075 50.4583C4.60118 52.0402 6.47672 53.0451 8.51251 53.1753L48.2074 15.6306C48.0697 13.7062 47.0073 11.9322 45.3359 10.8241L3.43075 50.4583Z" fill="#472B29"/>
<path d="M14.037 19.4954V22.1878H18.0944C17.5602 23.8191 16.1215 24.9846 14.037 24.9846C11.5561 24.9846 9.54525 23.0826 9.54525 20.7361C9.54525 18.3839 11.5561 16.4831 14.037 16.4831C15.1529 16.4831 16.1749 16.8738 16.9572 17.5093L19.0523 15.5276C17.7299 14.3869 15.9731 13.6908 14.037 13.6908C9.92155 13.6908 6.58831 16.848 6.58831 20.7361C6.58831 24.6242 9.92155 27.7813 14.037 27.7813C20.5551 27.7813 21.6709 22.2518 21.0572 19.5055L14.037 19.4954Z" fill="white"/>
<path d="M14.037 28.0622C9.76604 28.0622 6.29155 24.7759 6.29155 20.7373C6.29155 16.6988 9.76604 13.4114 14.037 13.4114C15.9731 13.4114 17.8249 14.0895 19.2529 15.3212L19.482 15.5199L16.9738 17.8923L16.7649 17.7228C16.0028 17.1052 15.0342 16.7651 14.037 16.7651C11.7247 16.7651 9.84201 18.5469 9.84201 20.7373C9.84201 22.9245 11.7235 24.704 14.037 24.704C15.7262 24.704 17.0581 23.8766 17.673 22.4686H13.7403V19.216L21.2982 19.2261L21.3481 19.4484C21.7457 21.228 21.4288 23.8597 19.8263 25.7302C18.498 27.2774 16.55 28.0622 14.037 28.0622ZM14.037 13.9717C10.0937 13.9717 6.88507 17.0064 6.88507 20.7362C6.88507 24.466 10.0937 27.4997 14.037 27.4997C16.3625 27.4997 18.1561 26.7845 19.3645 25.3732C20.7783 23.7227 21.1071 21.4233 20.8115 19.7841L14.3338 19.774V21.9039H18.498L18.3781 22.2677C17.7632 24.1426 16.1405 25.262 14.037 25.262C11.397 25.262 9.24849 23.2299 9.24849 20.734C9.24849 18.2336 11.397 16.2003 14.037 16.2003C15.084 16.2003 16.1037 16.5282 16.937 17.1288L18.619 15.539C17.3347 14.5274 15.7203 13.9717 14.037 13.9717Z" fill="#472B29"/>
<path d="M40.8634 0.561375C33.3827 0.561375 27.3204 6.29526 27.3204 13.3708C27.3204 22.098 37.7 25.2798 39.9589 38.8C40.1073 39.6701 40.118 40.2708 40.8634 40.2708C41.6089 40.2708 41.6196 39.6701 41.768 38.8C44.0269 25.2798 54.4065 22.0968 54.4065 13.3708C54.4065 6.29526 48.3442 0.561375 40.8634 0.561375Z" fill="#EA4989"/>
<path d="M40.8634 40.8322C39.6835 40.8322 39.528 39.8554 39.4141 39.1424L39.3737 38.8887C38.2092 31.9198 34.8463 27.7555 31.8799 24.0819C29.1152 20.6564 26.7269 17.699 26.7269 13.3708C26.7269 5.99885 33.0693 0 40.8634 0C48.6576 0 55 5.99885 55 13.3708C55 17.699 52.6117 20.6564 49.847 24.0807C46.8806 27.7555 43.5189 31.9198 42.3544 38.8876L42.3128 39.1424C42.2001 39.8554 42.0446 40.8322 40.8634 40.8322ZM40.8634 1.12275C33.7222 1.12275 27.9139 6.61749 27.9139 13.3708C27.9139 17.3207 30.1883 20.1365 32.8236 23.4004C35.8755 27.1807 39.3345 31.4662 40.5465 38.7135L40.5892 38.9763C40.6332 39.2513 40.6925 39.6286 40.7685 39.7038L40.9679 39.6971C41.0368 39.6275 41.0961 39.2513 41.14 38.974L41.1839 38.7113C42.3947 31.4639 45.8538 27.1795 48.9057 23.3992C51.5398 20.1365 53.8141 17.3195 53.8141 13.3697C53.813 6.61636 48.0035 1.12275 40.8634 1.12275Z" fill="#472B29"/>
<path d="M45.603 13.3724C45.603 15.8492 43.4817 17.8556 40.8631 17.8556C38.2445 17.8556 36.1232 15.8492 36.1232 13.3724C36.1232 10.8957 38.2445 8.8893 40.8631 8.8893C43.4817 8.8893 45.603 10.8957 45.603 13.3724Z" fill="#FFFEF4"/>
<path d="M40.8631 18.417C37.9216 18.417 35.5297 16.1535 35.5297 13.3724C35.5297 10.5914 37.9228 8.32793 40.8631 8.32793C43.8034 8.32793 46.1965 10.5914 46.1965 13.3724C46.1965 16.1535 43.8034 18.417 40.8631 18.417ZM40.8631 9.45068C38.5768 9.45068 36.7167 11.21 36.7167 13.3724C36.7167 15.5349 38.5768 17.2942 40.8631 17.2942C43.1494 17.2942 45.0095 15.5349 45.0095 13.3724C45.0095 11.21 43.1494 9.45068 40.8631 9.45068Z" fill="#472B29"/>
<path d="M41.9348 28.2975C41.841 28.2975 41.7473 28.2761 41.6594 28.2323C41.3698 28.0886 41.257 27.7496 41.4101 27.4745C43.1029 24.4195 46.3079 20.4786 47.6766 18.7956C47.9828 18.4173 48.1929 18.1613 48.2618 18.0636C49.2577 16.6703 49.7836 15.0423 49.7836 13.3548C49.7836 13.0449 50.0495 12.7934 50.3771 12.7934C50.7047 12.7934 50.9706 13.0449 50.9706 13.3548C50.9706 15.2668 50.3747 17.1138 49.2458 18.6923C49.171 18.7968 48.9467 19.0741 48.6167 19.4805C47.267 21.1411 44.1059 25.028 42.4595 27.9977C42.355 28.1874 42.1485 28.2975 41.9348 28.2975Z" fill="#472B29"/>
<path d="M50.0339 11.5119C49.7727 11.5119 49.5341 11.3479 49.4629 11.0998C49.2563 10.3947 48.9501 9.71545 48.5524 9.07773C48.1287 8.39959 47.6064 7.78095 47.001 7.23867C46.7635 7.02647 46.7529 6.67056 46.9772 6.44488C47.2027 6.22146 47.579 6.20911 47.8165 6.42243C48.5014 7.03657 49.0937 7.73717 49.5733 8.50625C50.0232 9.22818 50.371 9.99951 50.6036 10.8C50.6915 11.0987 50.5063 11.4074 50.1894 11.4894C50.1395 11.5051 50.0861 11.5119 50.0339 11.5119Z" fill="#472B29"/>
<path d="M45.2445 5.93299C45.1519 5.93299 45.0593 5.91278 44.9727 5.87012C43.7002 5.24587 42.3232 4.93038 40.8809 4.93038C40.5533 4.93038 40.2874 4.67888 40.2874 4.369C40.2874 4.05912 40.5533 3.80762 40.8809 3.80762C42.4918 3.80762 44.0955 4.17589 45.5175 4.87199C45.8096 5.01458 45.9235 5.35365 45.7728 5.62873C45.6671 5.82184 45.4594 5.93299 45.2445 5.93299Z" fill="#472B29"/>
</svg>
